<?xml version="1.0" standalone="no"?>
<!DOCTYPE svg PUBLIC "-//W3C//DTD SVG 1.1//EN" "http://www.w3.org/Graphics/SVG/1.1/DTD/svg11.dtd" >
<svg xmlns="http://www.w3.org/2000/svg">
<metadata></metadata>
<defs>
<font id="dickiemedium" horiz-adv-x="20" >
<font-face units-per-em="2048" ascent="1638" descent="-410" />
<missing-glyph horiz-adv-x="860" />
<glyph horiz-adv-x="0" />
<glyph unicode="&#xd;" horiz-adv-x="681" />
<glyph unicode=" "  horiz-adv-x="860" />
<glyph unicode="&#x09;" horiz-adv-x="860" />
<glyph unicode="&#xa0;" horiz-adv-x="860" />
<glyph unicode="!" horiz-adv-x="278" d="M29 246q18 35 73.5 34t104.5 -36q68 -49 46 -108.5t-112 -78.5q-45 -10 -65.5 8.5t-44.5 86.5q-20 59 -2 94zM57 879q-2 207 3.5 283.5t19.5 94.5q25 29 53.5 23t46.5 -43q8 -18 20.5 -35.5t16.5 -25t11.5 -33t6 -61t2 -111.5t-0.5 -183l-5 -360h-61q-27 0 -43 5 t-30.5 23.5t-20.5 44t-11.5 82t-6.5 122t-1 174.5z" />
<glyph unicode="#" horiz-adv-x="847" d="M21.5 575.5q11.5 28.5 95.5 47.5q55 12 75.5 39.5t14.5 87.5q-2 47 -12.5 58t-49.5 15q-61 6 -81.5 38t7 69t91.5 57q41 12 66.5 32.5t39 54.5t20.5 65.5t17.5 90t22.5 103.5q14 53 96 -28q45 -45 49 -73t-24 -97q-27 -59 -19 -87t53 -28t74 51t6.5 92t-6.5 80t68 66 q35 20 54 22t42 -10q31 -16 34 -43t-16 -119l-20 -92l59 -49q41 -31 47 -47.5t-6 -48.5q-16 -47 -69 -78q-55 -31 -69.5 -87.5t15.5 -123.5q51 -115 -47 -129q-37 -4 -98.5 -143.5t-71.5 -239.5q-6 -55 -15 -76.5t-20.5 -15.5t-21.5 21.5t-25.5 40t-25.5 34.5q-39 39 0 266 q20 131 -9 123q-18 -6 -55 -86q-72 -156 -93 -192.5t-44 -40.5q-20 -4 -24.5 20.5t-4.5 124.5v154l-63 24q-68 29 -56.5 57.5zM370 738q-5 -54 26.5 -65t55 16.5t23.5 76.5q0 53 -15.5 64.5t-49.5 -15.5q-35 -23 -40 -77z" />
<glyph unicode="$" horiz-adv-x="598" d="M20 215q4 25 18.5 31t70.5 2l81 -4l11 92q25 219 24.5 274.5t-28.5 134.5q-74 209 -41 416q12 78 28.5 107.5t69.5 79.5q82 69 82 92q0 14 22.5 43.5t54 43t64.5 -23.5q18 -23 12 -36t-14 -33.5t-14 -40t8 -54t55 -75.5q63 -66 51 -93q-6 -16 -13 -19t-17 4t-22.5 16.5 t-33 16.5t-40.5 7q-25 0 -36.5 -16.5t-23.5 -71.5q-18 -90 -18 -186q0 -68 8 -85.5t51 -35.5q57 -25 77.5 -85.5t22.5 -215.5q6 -131 0 -203t-15 -93.5t-44 -58.5q-23 -27 -60.5 -51t-66.5 -35q-53 -18 -69.5 -35.5t-43.5 -84.5q-20 -49 -51 -43q-18 2 -24 21.5t-6 66.5 q0 55 -10.5 77.5t-57.5 59.5q-66 55 -62 94zM324.5 437q7.5 -126 17.5 -136q10 -12 33 10q14 14 15 131t-13 140q-8 16 -24.5 15t-26 -17.5t-2 -142.5z" />
<glyph unicode="%" horiz-adv-x="868" d="M20 971q0 33 73 110.5t110 85.5q35 10 48 8.5t64 -40.5q39 -31 48.5 -51.5t9.5 -77t-10.5 -78t-51.5 -54.5q-49 -39 -97 -45t-82 12.5t-59.5 46t-39 51.5t-13.5 32zM43 114q4 23 59 142l131 289q72 156 124.5 241.5t83 126.5t51.5 86q25 51 117.5 152.5t92.5 103.5 q31 39 66 46.5t61 -19.5q23 -23 16 -42t-63 -89q-82 -106 -139 -191.5t-57 -103.5t-71 -118.5t-71 -110.5t-70.5 -123t-70.5 -134.5t-36 -72.5t-36 -66q0 -16 -25.5 -66t-67.5 -87t-72 -10q-27 23 -23 46zM188 1004q-10 -19 19 -29q41 -18 41 8q0 25 -25 35q-20 8 -35 -14z M417 380.5q-17 90.5 40 176.5q16 29 33.5 34t62.5 1q143 -20 166 -164q14 -90 -3.5 -140t-68.5 -75q-43 -20 -60.5 -17t-68.5 37q-84 57 -101 147.5z" />
<glyph unicode="&#x26;" horiz-adv-x="555" d="M20 373q2 96 14.5 177t25 113.5t16.5 76.5t-13 65q-59 123 -34 319q12 98 54 153.5t120 76.5q80 20 113.5 15t58.5 -44q51 -78 72.5 -220t-15.5 -165q-16 -10 -16 -41q0 -23 -71 -99.5t-71 -101.5q0 -27 44 -108.5t59 -81.5q10 0 49 49q47 59 88 29q39 -31 10 -97 q-4 -10 -10 -20q-18 -31 -22.5 -62.5t4.5 -93.5q8 -90 -11.5 -112.5t-81.5 6.5q-27 16 -51 7t-35.5 -25.5t-47.5 -37t-86 -26.5t-70.5 1t-49.5 38q-31 33 -37 65.5t-6 143.5zM156 1014q8 -188 98 -60q39 60 39 160q0 88 -22.5 99.5t-75.5 -46.5q-29 -31 -36 -58.5t-3 -94.5z M186 432q0 -55 23.5 -90t54.5 -23q27 10 20 56.5t-40 83.5q-31 35 -44.5 28.5t-13.5 -55.5z" />
<glyph unicode="'" horiz-adv-x="352" d="M27.5 856q-15.5 31 3.5 72q16 39 23 133t22.5 159.5t58.5 65.5q27 0 75 34t60 36q23 0 42.5 -24.5t19.5 -53.5q0 -39 -38 -136.5t-69 -135.5q-35 -43 -35 -66q0 -27 -39.5 -71t-64.5 -44q-43 0 -58.5 31z" />
<glyph unicode="(" horiz-adv-x="354" d="M25.5 806.5q11.5 223.5 58.5 369t113 145.5q31 0 53 27q43 51 72 2q31 -55 -3 -127q-8 -14 -16 -27q-37 -51 -37 -59q0 -4 -44 -105.5t-44 -126.5q0 -29 -31 -176q-23 -106 -20.5 -150t31.5 -188q14 -68 28.5 -128t23.5 -96t18.5 -65.5t12.5 -46t6 -28t-1 -18.5t-8.5 -11 t-16.5 -12q-35 -27 -61 -21q-37 6 -72 107.5t-51 240.5q-23 270 -11.5 493.5z" />
<glyph unicode=")" horiz-adv-x="335" d="M20 1231q0 12 15.5 31.5t15.5 50.5q0 37 12.5 49t51.5 12q45 0 79.5 -77.5t69.5 -252.5q35 -178 47.5 -441t-10.5 -353q-45 -176 -61.5 -213t-55.5 -62q-55 -33 -77.5 -29.5t-38.5 44.5q-18 47 8 129q35 115 59.5 308.5t16.5 309.5q-12 211 -35 316.5t-62 138.5 q-35 27 -35 39z" />
<glyph unicode="*" horiz-adv-x="665" d="M27 908.5q12 13.5 84 49.5q135 70 34 121q-49 27 -82 64q-20 23 -22 35t10 28q23 27 89.5 27t88.5 -27q53 -63 54 37q0 61 18 96q18 39 47 29t47 -59q16 -49 28.5 -62.5t23 -7.5t43 21.5t72.5 18.5t57.5 -2t23.5 -22q8 -25 -14.5 -50t-116.5 -97q-53 -41 -43 -68.5 t100 -99.5q51 -39 64.5 -56.5t1.5 -31.5q-25 -29 -80 -25t-90 37l-39 39l-16 -43q-27 -70 -78 -82q-43 6 -49 56q0 43 -20.5 53t-49.5 -15.5t-93.5 -26.5t-84.5 25q-20 25 -8 38.5z" />
<glyph unicode="+" horiz-adv-x="542" d="M23 752q-8 27 17.5 50t63.5 23q68 0 89.5 36t25.5 155q4 143 27.5 170.5t39 24.5t56.5 -42q29 -31 38 -62.5t13 -127.5q4 -106 10.5 -125.5t40.5 -24.5q41 -4 60.5 -21t16.5 -36.5t-14 -40t-29.5 -34t-33.5 -13.5q-41 0 -48 -28.5t12 -123.5q6 -29 9 -50t3 -37.5 t-1 -27.5t-10.5 -19.5t-14.5 -12.5t-22.5 -8t-27.5 -5t-35.5 -3t-42.5 -4q-33 -4 -39 14q-8 18 -14 145l-10 168l-86 19q-86 18 -94 41z" />
<glyph unicode="," horiz-adv-x="284" d="M25 324q6 18 20.5 36.5t30.5 24.5q45 18 65.5 13t69.5 -50q43 -39 49 -60.5t-2 -92.5q-8 -80 -35.5 -115t-103.5 -68q-49 -20 -72 0q-12 12 -7 23.5t30 32.5q33 25 34.5 36t-20.5 46q-45 74 -56.5 106.5t-2.5 67.5z" />
<glyph unicode="-" horiz-adv-x="464" d="M23 614q8 31 27 39.5t97 16.5q229 23 279 -27q16 -16 17 -27.5t-7 -19.5t-15 -26.5t-5 -45.5q4 -41 -29 -48t-92 26q-35 18 -51.5 20t-28.5 -10q-25 -25 -61.5 -25t-68.5 16.5t-51.5 47.5t-10.5 63z" />
<glyph unicode="." horiz-adv-x="296" d="M21 254.5q-3 29.5 26 62.5q33 35 88 33t90 -39q63 -72 49 -123t-100 -51q-70 0 -113 47q-37 41 -40 70.5z" />
<glyph unicode="/" horiz-adv-x="632" d="M22.5 5q-10.5 36 16.5 83q14 27 69.5 173.5t75.5 184.5q29 53 29 99q0 31 34 97.5t40 131.5q8 78 73 219l86 187q8 16 19.5 35.5t30 41t36 32.5t38 7t36.5 -30q18 -27 -46 -163t-64 -155q0 -25 -35 -139l-70 -240q-90 -309 -135 -432t-72 -123q-12 0 -42.5 -26.5 t-67.5 -22.5q-41 4 -51.5 40z" />
<glyph unicode="0" horiz-adv-x="524" d="M23.5 504q-9.5 203 9.5 479l18 254l66 68q65 67 102 73q43 10 96.5 -1t90.5 -36q43 -31 61 -83t25.5 -163.5t9.5 -357.5l2 -432l-53 -80q-37 -51 -63 -68.5t-87 -31.5q-96 -20 -146.5 1t-86.5 99q-35 76 -44.5 279zM161.5 400.5q8.5 -54.5 61.5 -105.5l62 -59l41 47 q29 31 38 74.5t17 185.5q12 213 0 429t-39 247q-29 31 -43 27.5t-59 -50.5q-47 -47 -61.5 -126t-5.5 -156.5t13 -168t-8 -163.5q-25 -127 -16.5 -181.5z" />
<glyph unicode="1" horiz-adv-x="442" d="M21 1060q-1 40 20.5 74.5t43 67.5t21.5 41q1 8 48 88q27 45 45 61.5t39 12.5q25 -4 30 -29q6 -33 8 -223q0 -209 13.5 -535.5t21.5 -353.5q6 -20 51 0q39 18 53.5 9t0.5 -42t-17.5 -66.5t-37 -57t-78.5 -23.5q-51 0 -121 -35q-88 -47 -119 -26q-8 6 -8 14q2 12 2 57 t61 80q41 25 47.5 38t-6.5 46q-20 47 -28 377q-8 295 -23 328q-6 16 -29 30q-37 27 -38 67z" />
<glyph unicode="2" horiz-adv-x="524" d="M25 1073q-16 27 36 144q31 68 50.5 94t42.5 30q33 4 123 0t114 -12q18 -4 62 -86q31 -57 33.5 -87t-11.5 -120q-18 -102 -63 -261t-79 -261t-40 -111q-49 -104 -57.5 -138t12.5 -54q27 -25 137 -37q74 -6 94.5 -14t22.5 -33q6 -39 -53 -84q-39 -31 -72 -39t-113 -8 q-100 0 -130 18.5t-77 108.5q-33 66 -14 88q16 20 72.5 178t79.5 252q25 90 41 123q27 49 67.5 210t32.5 175q-12 23 -37 51q-18 20 -28.5 20.5t-41.5 -18.5q-45 -31 -88 -96q-68 -109 -116 -33z" />
<glyph unicode="3" horiz-adv-x="503" d="M24.5 311q14.5 47 61.5 47q27 0 37 -10t14 -43q4 -45 40 -89t69 -44q29 0 65 41q23 25 29 63.5t6 151.5q2 152 -18.5 198t-81.5 33q-47 -10 -69.5 15.5t-16.5 83.5q4 41 18.5 52t75.5 24l88 18l6 170q2 104 -2 141t-22 54q-18 14 -31.5 9t-42.5 -42q-49 -63 -96 -60 q-37 2 -25 47q10 41 -25 62q-41 20 -32.5 49t71.5 72q45 33 91.5 45t78 7t57 -17.5t39 -27.5t13.5 -26q0 -20 31 -55q20 -23 25 -110t5 -431q-2 -455 -16 -512q-6 -27 -27 -61q-72 -117 -221 -117q-49 0 -100 25.5t-51 48.5q0 18 -29 80q-29 61 -14.5 108z" />
<glyph unicode="4" horiz-adv-x="643" d="M25.5 567.5q19.5 83.5 117.5 268.5q31 57 62 132.5t31 96.5q0 29 31.5 88.5t80.5 120.5q61 76 94 63.5t41 -114.5q8 -80 -5 -281t-9 -278l6 -111l70 -8q51 -8 61 -18.5t15 -63.5q4 -51 -6.5 -68.5t-59.5 -50.5l-70 -47l-10 -274h-53q-39 0 -47 15t-17 99 q-8 115 -22 137.5t-86 22.5q-59 0 -107.5 32.5t-48.5 73.5q0 33 -35 52q-53 29 -33.5 112.5zM229 530.5q9 -28.5 54 -20.5q18 4 26 24.5t13 79.5q3 97 -7 136q-4 23 -15 34t-21.5 6.5t-16.5 -20.5q-6 -23 -26 -127q-16 -84 -7 -112.5z" />
<glyph unicode="5" horiz-adv-x="534" d="M20 1073q0 86 7.5 123t33.5 74q29 43 55.5 52t143.5 17q41 2 82 5.5t57.5 4.5l33 2t23.5 -2t14 -6.5t19 -11.5q25 -20 24 -29.5t-38 -46.5q-29 -31 -54.5 -39t-86.5 -6q-68 0 -111 -19.5t-43 -53.5q0 -35 59.5 -84t112.5 -58q29 -6 50.5 -14t38 -24.5t26.5 -29t16 -40 t10.5 -45t4.5 -55v-57t-2 -68t-2 -70.5q-4 -168 -11.5 -238.5t-25.5 -101.5q-31 -53 -31 -72q0 -37 -55.5 -68.5t-132.5 -39.5q-80 -8 -99.5 -1t-58.5 58q-33 43 -43 78t-14 115q-4 84 2 110.5t30 48.5q43 39 71 15.5t32 -105.5q6 -111 61 -139q53 -20 86 57q18 49 8 244 l-10 195l-84 77q-84 78 -115 74q-49 -8 -66.5 30t-17.5 144z" />
<glyph unicode="6" horiz-adv-x="528" d="M25 750q10 176 43 231q33 59 32.5 95t36.5 110l49 98q16 33 83 58.5t129.5 24.5t70.5 -36q6 -33 -19.5 -77t-58.5 -58q-20 -8 -38.5 -32.5t-38 -58.5t-31.5 -48q-20 -27 -33 -84q-8 -41 1 -55.5t64 -38.5q76 -35 105 -35t59 -33q18 -20 24.5 -63t4.5 -160 q0 -94 -5 -143.5t-11.5 -61.5t-16.5 -38t-16 -71q-23 -178 -137 -194q-74 -12 -124.5 3t-97.5 64q-39 39 -49 74t-20 160q-16 193 -6 369zM143 602q-20 -233 47 -346q49 -84 107 -16q20 23 39 63q27 59 33 103.5t4 136.5t-10 126.5t-35 61.5q-29 31 -88.5 42t-73.5 -11 q-10 -14 -23 -160z" />
<glyph unicode="7" horiz-adv-x="585" d="M20 1288l39 33q25 18 69 25.5t157 7.5q186 0 199.5 -23.5t47.5 -32.5q23 -4 29 -21t2 -81q-2 -59 -12 -95t-31.5 -98.5t-40.5 -150.5q-20 -90 -54 -206t-56.5 -189.5t-22.5 -98.5q0 -37 -43 -126t-74 -117q-25 -20 -34 -21.5t-23 17.5q-16 12 -12 42.5t14 56.5t21.5 72 t11.5 89q0 51 34.5 158.5t34.5 138.5t35 157.5t35 165.5q0 49 29 103q35 66 11 84t-142 18q-94 0 -123 8t-58 39z" />
<glyph unicode="8" horiz-adv-x="477" d="M23.5 267q-7.5 83 7.5 265q14 209 43 240q18 20 17 30.5t-23 31.5q-23 18 -29 58t-6 165v190l69 64q121 109 248 22q39 -27 53.5 -55.5t30.5 -112.5q20 -92 17.5 -120.5t-33.5 -98.5q-43 -94 -80 -143l-35 -51l41 -27q14 -10 26.5 -26.5t12.5 -28.5q0 -18 20.5 -51 t24.5 -105q6 -84 18 -219l11 -135l-76 -74q-55 -53 -80 -62.5t-94 -5.5q-72 4 -90.5 14.5t-44.5 69.5q-41 82 -48.5 165zM162 426q-8 -131 7 -168t77 -29q29 4 36 28t13 128q8 106 3 133.5t-36 56.5q-55 53 -72 33q-18 -23 -28 -182zM174 1049q-8 -147 27 -148q20 0 61 45 q31 35 40 63.5t9 86.5q0 94 -20 114q-68 68 -101 -51q-10 -45 -16 -110z" />
<glyph unicode="9" horiz-adv-x="514" d="M20 918q2 172 9.5 219t40.5 104q27 45 49 63.5t36.5 16.5t39 3.5t49.5 23.5q23 18 49 18t52 -11.5t47.5 -25.5t43 -29.5t33.5 -19.5q18 -6 22.5 -57.5t2.5 -247.5q-4 -250 -20.5 -457t-35.5 -252q-14 -31 -74.5 -80t-84.5 -49q-20 0 -54 -37q-35 -39 -104.5 -33.5 t-75.5 48.5q-4 41 57 78q70 41 129.5 118.5t53.5 122.5q-2 35 -28 47.5t-57.5 14.5t-75.5 32.5t-77 94.5q-16 31 -21.5 92t-5.5 203zM166 872.5q0 -141.5 29 -184.5q27 -37 61.5 -35t67.5 45q25 29 30.5 73t5.5 187q0 213 -21.5 234.5t-31.5 21.5q-14 0 -52 -46t-60 -93 q-29 -61 -29 -202.5z" />
<glyph unicode=":" horiz-adv-x="305" d="M20 317q1 35 46 80q31 29 50 34t68 -3q70 -12 85.5 -21.5t15.5 -44.5q0 -37 -56.5 -95t-91.5 -58t-76 38t-41 70zM24.5 999q6.5 47 49.5 70q78 39 136 10.5t58 -106.5q0 -35 -9 -50.5t-38 -25.5q-106 -41 -168 18q-35 37 -28.5 84z" />
<glyph unicode=";" horiz-adv-x="327" d="M27.5 227.5q-17.5 32.5 2.5 67.5t83 51q68 18 102 8q57 -14 70.5 -44.5t7.5 -141.5q-4 -84 -12.5 -117t-26.5 -47q-31 -23 -107.5 -25t-89.5 17q-12 23 11.5 46.5t64.5 27.5q47 6 47 32.5t-45 34.5q-29 6 -59.5 32t-48 58.5zM66 889q-18 47 4 91t71 67q57 27 73.5 21.5 t55.5 -56.5q33 -45 36 -61.5t-19 -61.5q-18 -41 -33.5 -52.5t-54.5 -11.5q-63 0 -92 14.5t-41 49.5z" />
<glyph unicode="&#x3c;" horiz-adv-x="509" d="M20 754l158 168q66 72 121 121t68 49q70 0 12 -109q-14 -25 -49 -82q-43 -72 -60 -104l-39 -74l52 -68q51 -68 129 -143l77 -76l-106 -110l-49 39q-109 86 -191 175t-98 140z" />
<glyph unicode="=" horiz-adv-x="1005" d="M37 932q12 39 143 61.5t333 38t261 23.5q104 16 140 16t47 -16q16 -27 -42.5 -69t-149.5 -74.5t-161 -32.5q-45 0 -231.5 -35t-208.5 -35q-33 0 -86 50t-45 73zM43 578q-49 49 14 71q20 8 242 47q37 6 70 15q102 20 206.5 27.5t172.5 27.5q59 16 139 16t96 -18 q4 -4 0 -26.5t-25.5 -46t-58.5 -23.5t-165 -28t-251 -44q-104 -12 -239 -31q-125 -16 -149.5 -15t-47.5 25q-2 0 -4 3z" />
<glyph unicode="&#x3e;" horiz-adv-x="464" d="M20.5 1119.5q0.5 36.5 20.5 56.5q31 31 76 6t166 -140q117 -113 139 -145.5t22 -89.5q0 -53 -22.5 -91t-120.5 -151q-92 -104 -127 -133t-63 -26q-31 4 -38 17t-7 71q0 51 14 82.5t70 95.5q76 90 81 138t-59 97q-55 41 -103.5 108.5t-48 104z" />
<glyph unicode="?" horiz-adv-x="563" d="M26.5 1002.5q-12.5 35.5 2.5 117.5q14 88 59 136t135 77q63 20 78.5 20.5t50.5 -20.5q59 -33 94 -70.5t44.5 -65.5t17.5 -51.5t17.5 -29.5t14.5 -29.5t1 -62.5t-16.5 -85t-43 -103.5t-75.5 -112.5q-35 -43 -51.5 -82t-26.5 -102l-27 -177q-6 -43 0 -57t37 -26 q47 -18 55 -62.5t-31 -95.5q-25 -33 -46 -43t-66 -10q-72 0 -92 20t-21.5 102t18 101.5t-0.5 85.5q-35 104 5 273t117 257q51 57 74 120t0 85q-14 16 -91 32.5t-91 6.5q-14 -8 -14 -61.5t-19.5 -88t-50.5 -34.5q-45 0 -57.5 35.5z" />
<glyph unicode="@" horiz-adv-x="1040" d="M21.5 637q5.5 254 37.5 340q27 70 29 131q0 70 46 128t130 95q63 29 104.5 35t125.5 2q131 -8 215 -43t161 -115q33 -33 46.5 -51t25.5 -35.5t17.5 -49.5t10.5 -62.5t14 -106.5t22 -149q16 -98 13 -164t-28 -215q-25 -139 -99.5 -197.5t-232.5 -58.5q-80 0 -115.5 8 t-80.5 37t-67.5 56.5t-42 62t-42.5 59.5q-53 61 -44 267t71 327q35 68 113 104l77 39l170 -168l33 -292q39 -344 78 -345q25 2 53 119q16 92 12 128t-15 108t-11 133q0 55 -36 167.5t-36 123.5q0 23 -38 64.5t-59.5 41.5t-51.5 35q-18 23 -40 28t-65 -3q-115 -16 -177 -73.5 t-62 -143.5q0 -31 -27 -82q-41 -84 -39 -387.5t45 -393.5l41 -84q10 -20 37 -46.5t55 -43.5q92 -51 260 -50t211 54q18 23 68.5 25t64.5 -19q14 -27 -46 -72.5t-152 -78.5q-356 -125 -613 115q-68 63 -92 115.5t-51 187.5q-29 139 -23.5 393zM426 387q4 -41 25 -49 q39 -14 73.5 49.5t53.5 181.5q18 131 4.5 210t-58.5 89q-57 16 -71 -8q-20 -31 -27 -266q-4 -166 0 -207z" />
<glyph unicode="A" horiz-adv-x="630" d="M23 954q4 76 26 125q20 45 44 75t35 43t11 28q0 10 17.5 25.5t42.5 25.5q51 22 82 22q9 0 17 -2q32 -8 97 -69q47 -41 69.5 -78t39.5 -92q39 -141 49 -251q6 -65 6 -110q0 -31 -3 -53q-4 -34 -4 -73q0 -24 1 -48q4 -68 31 -139q26 -75 26 -111q0 -6 -1 -12 q-6 -35 -52 -35q-43 0 -60.5 36t-39.5 155q-23 129 -42.5 153.5t-99.5 30.5l-77 6l4 -145q1 -23 1 -44q0 -192 -67 -192q-33 0 -55 -26q-18 -23 -43 -26h-7q-20 0 -28 15q-10 18 -18 418q-4 163 -4 256q0 62 2 92zM231 882q-3 -33 -4 -57q0 -49 15 -57q6 -3 25 -3t52 3 q27 4 39.5 9t20.5 15q6 7 6 21q0 7 -1 13q-3 24 -9.5 55t-22.5 90q-43 152 -65 152q-2 0 -4 -1q-4 -4 -9 -14q-33 -124 -43 -226z" />
<glyph unicode="B" horiz-adv-x="571" d="M22 1160q3 32 23 61q20 31 42 39t87 8q59 0 93 -9.5t73 -37.5q63 -43 91 -83t37 -103.5t9 -196.5q0 -143 7.5 -193.5t29.5 -87.5q37 -61 37 -157.5t-39 -145.5q-52 -66 -156 -90q-40 -9 -76 -9q-56 0 -102 23q-16 8 -26.5 18.5t-18.5 33t-13 42t-15.5 67.5t-20.5 89 q-16 68 -25.5 173.5t-17.5 241.5t-14 206q-6 57 -6 89q0 13 1 22zM160 938q4 -144 20 -211q18 -70 42 -85q8 -5 19 -5q21 0 52 20q29 18 36 42t7 100q0 113 -45 211q-47 101 -89 101q-16 0 -32 -15q-11 -11 -11 -101q0 -25 1 -57zM225 479q-8 -12 -8 -34q1 -22 9 -55 q16 -64 42 -77q10 -6 23 -6q27 0 63 27q55 42 55 76q0 24 -26 45q-25 19 -87 29q-24 4 -41 4q-25 0 -30 -9z" />
<glyph unicode="C" horiz-adv-x="516" d="M22 377q-1 21 -1 57q0 93 6 287q6 272 14 349t33 126q16 31 41 59.5t43 38.5q45 25 72.5 25t86.5 -25q99 -44 147 -112q32 -45 32 -88q0 -23 -9 -45q-14 -29 -34.5 -25t-52 27.5t-60.5 51t-58.5 43t-48.5 5.5q-47 -31 -59 -104.5t-12 -313.5q0 -143 4 -223t15.5 -131 t29.5 -66.5t53 -15.5q51 0 83 35t68 36t48 -28q5 -12 5 -25q0 -21 -11 -47q-35 -68 -76 -92t-119 -26h-10q-71 0 -118 26q-50 28 -89 92q-19 35 -23 109z" />
<glyph unicode="D" horiz-adv-x="499" d="M21 1016q0 197 20 215q25 18 195 35h2q37 0 95 -64q60 -66 89 -145q20 -59 29.5 -138t17.5 -253l10 -291l-49 -94q-29 -53 -59.5 -85t-79.5 -61q-84 -46 -116 -46h-6q-30 5 -65 79q-29 63 -36 142t-10 189.5t-19 202.5q-18 117 -18 314zM154 1114q-1 -3 -1 -19 q0 -35 6 -131q9 -140 25.5 -338t20.5 -276q4 -80 6 -94q2 -12 9 -11q13 0 44 31q35 35 55 76q31 68 33 180v17q0 111 -24 303q-27 192 -58 223q-30 27 -68 40q-19 6 -30 6q-13 0 -18 -7z" />
<glyph unicode="E" horiz-adv-x="425" d="M20 1150q0 39 13 52q22 21 149 33q94 7 142 7q24 0 37 -2q38 -5 42 -36v-6q-1 -30 -39 -60q-42 -34 -114 -57q-55 -14 -70.5 -56t-17.5 -179v-17q0 -110 24 -144q26 -36 119 -36q86 0 96 -26q3 -10 3 -18q0 -21 -20 -37q-30 -22 -87 -23q-88 0 -112.5 -26.5t-24.5 -123.5 q0 -99 20 -123q16 -20 69 -20q13 0 27 2q10 1 19 1q49 1 81 -17q29 -15 28 -38q0 -8 -3 -16q-13 -32 -159 -32h-4q-142 0 -166 30q-16 18 -17.5 151.5t-3.5 334t-18 331.5q-13 111 -13 151z" />
<glyph unicode="F" horiz-adv-x="499" d="M19 1212q1 41 14 45q2 0 50 16.5t77.5 22.5t79.5 14q25 4 50 4t49 -4q48 -7 93 -30q47 -22 47 -43q0 -5 -2 -9q-12 -24 -88 -36q-88 -16 -158 -39l-71 -20l-4 -132q-2 -36 -2 -67q0 -83 12 -133q10 -53 22 -61q9 -7 45 -7h19h15q60 0 85 -28q25 -27 25 -52q0 -45 -80 -82 q-47 -20 -61.5 -39.5t-12.5 -54.5t25 -119l26 -100l-51 -51q-34 -34 -55 -34q-8 1 -14 5q-22 18 -21 101q0 63 -35 247.5t-35 237.5q0 29 -7 91.5t-15 126.5q-7 65 -15 127q-7 55 -7 93v10z" />
<glyph unicode="G" horiz-adv-x="600" d="M22 366q-1 15 -1 31q0 30 5 61q7 48 20 184t20 304l8 215l88 80q45 39 64.5 55.5t41.5 19.5q8 1 14 1q13 0 20 -4q11 -6 49 -22.5t77 -28.5q12 -4 27.5 -29t23.5 -55q14 -43 14 -66q0 -24 -18 -53q-30 -54 -66 -54h-1q-37 1 -60.5 58t-41.5 60h-2q-18 0 -56 -40 q-32 -34 -32 -67q0 -8 2 -17q4 -15 4 -64q0 -91 -13 -298q-9 -149 -9 -235t9 -109q14 -31 65 -31q49 0 74 40q22 34 22 93q0 9 -1 19q-4 55 -13.5 71.5t-38.5 22.5q-50 13 -50 51q0 10 3 21q12 41 41 47q6 2 15 0q4 -2 17 -2q27 0 92 9q29 4 52 4q49 0 64 -20q30 -27 30 -55 v-5q-3 -32 -42 -56q-29 -18 -37 -41t-8 -86q0 -70 -10.5 -95.5t-59.5 -74.5l-72 -72l-106 10q-94 10 -125 31t-70 98q-25 49 -29 94z" />
<glyph unicode="H" horiz-adv-x="516" d="M27 932q-7 136 -7 213q0 89 9 101q13 19 45 19q8 0 18 -1q33 -4 42 -27t24 -129q20 -150 22 -248q2 -78 22 -112q15 -25 39 -25q10 0 21 4q14 6 20.5 49t6.5 170q0 125 5 173t19 61q27 20 27 51q0 39 20 50q6 3 12 3q16 0 36 -22q18 -20 38.5 -157.5t26.5 -268.5l19 -408 q4 -92 4 -157q0 -77 -6 -115q-10 -72 -48 -72q-25 0 -54.5 33t-29.5 59q0 35 -39 86q-23 32 -27 56q-1 7 -2 18q0 23 7 61q10 62 10 122q0 15 -1 30q-2 74 -18 90q-6 6 -15 6q-16 0 -44 -18q-29 -18 -39 -49t-18 -134q-5 -64 -5 -109q0 -27 2 -49q5 -54 14.5 -78t7 -41 t-24.5 -46q-31 -45 -72 -45q-51 0 -60 85q-5 45 -5 120q0 65 4 155q3 69 3 154q0 148 -9 342z" />
<glyph unicode="I" horiz-adv-x="188" d="M20 726q-1 66 -1 122q0 328 20 375q16 42 48 42q4 0 9 -1q25 -2 35 -21.5t21 -81.5q14 -92 17 -518q1 -75 1 -138q0 -295 -12 -329q-10 -33 -31 -38q-4 -1 -8 -1q-17 -1 -35 17q-22 22 -37 63q-23 67 -27 509z" />
<glyph unicode="J" horiz-adv-x="534" d="M21 440q2 35 27 46q6 2 12 2q21 0 48 -30q35 -38 35 -75q0 -31 43 -61q34 -23 61 -23q8 0 15 2q20 4 24 23q1 8 1 32q0 28 -2 76q-6 115 -9 209q-6 205 -17 297t-25.5 115.5t-53.5 42.5q-6 4 -10 6q-39 18 -54.5 35.5t-15.5 42.5q0 31 14.5 39t73.5 16q59 7 112 7 q61 0 114 -10q100 -18 100 -56q0 -16 -63 -78q-20 -20 -29.5 -30.5t-18 -34t-9.5 -38t2 -62.5t9.5 -88t18.5 -132q23 -139 25 -303v-51q0 -75 -5 -98q-6 -30 -45 -71q-35 -37 -56 -45q-12 -5 -34 -5q-17 0 -39 3q-88 8 -150.5 57.5t-80.5 121.5q-18 75 -18 111v7z" />
<glyph unicode="K" horiz-adv-x="512" d="M25 1106q-3 54 -3 94q0 78 13 96q23 25 47 24t33 -30q4 -12 18 -41.5t19.5 -72.5t5.5 -140q2 -154 20 -153q14 4 58.5 131t46.5 164q0 27 57 85t84 58q48 0 64 -46q5 -14 5 -27q0 -29 -26 -50q-27 -23 -51 -104q-20 -74 -61.5 -162t-57.5 -98q-18 -12 -15 -45t25 -50 q16 -14 24.5 -43.5t22 -84t33.5 -103.5q86 -200 87 -279q0 -32 -15 -45q-12 -12 -37 -12q-31 0 -46.5 22.5t-35.5 94.5q-53 188 -94 229q-16 15 -28 15q-28 0 -40 -78q-6 -51 -8 -140q-4 -211 -43 -211q-12 0 -27 13q-33 29 -44 164t-15 399t-16 426z" />
<glyph unicode="L" horiz-adv-x="516" d="M22 1122q-2 23 -2 43q0 25 2 43q4 32 17 45q29 35 52 35q28 0 46 -55q10 -33 17 -80q6 -74 18 -161t17.5 -127t6 -88t-11.5 -91q-10 -41 -12 -67.5t0 -43t8 -59.5t10 -94q10 -113 21.5 -123t67.5 -12q123 -2 156.5 -10.5t49.5 -34.5q11 -20 11 -33q0 -14 -23 -37 q-18 -23 -56 -29t-155 -6h-18h-62.5t-48.5 4t-39 5t-27.5 14.5t-20.5 19.5t-11 33t-8 42t-1 60v40.5v33.5q1 29 3 94v31q5 118 5 214q0 32 -1 60q-2 116 -4.5 198t-6.5 136z" />
<glyph unicode="M" horiz-adv-x="704" d="M20 791q0 285 4 357t27 105q31 46 65 46h4q36 -3 103 -58q74 -61 84 -61t47 34q39 37 120 40h14q71 0 104 -29q27 -25 41 -47.5t26.5 -56.5t15.5 -106.5t5 -159.5t4 -255q0 -477 -11 -496.5t-44 -18.5t-49 21q-12 16 -15.5 191.5t-9.5 383.5t-25 282q-34 127 -54 127h-1 q-35 -6 -47 -467q-10 -360 -35 -408q-9 -19 -28 -19q-14 0 -35 11q-14 8 -25.5 25.5t-11.5 33.5q-4 172 -25.5 338t-27.5 254q-16 244 -59 244q-4 0 -9 -2l-6 -6q-14 -12 -16 -74v-21q0 -67 8 -271q10 -245 20 -396q2 -38 2 -73q0 -68 -8 -120q-10 -65 -39 -93 q-15 -14 -29 -14t-26 13q-55 55 -58 746z" />
<glyph unicode="N" horiz-adv-x="645" d="M25 1114q-4 26 -4 47q0 37 12 57q18 30 73 31q43 0 77 -43t54.5 -97t52.5 -147.5t58 -152.5q25 -53 54.5 -140t48 -141.5t26.5 -54.5q10 0 10 35q0 22 -4 57q-39 401 -67 527q-18 76 -18 102t18 53q26 40 51 40q16 0 31 -17q30 -36 30 -116v-5q0 -53 29 -224t35 -249 q6 -84 12 -167t10 -128t7.5 -89t4.5 -66v-14q0 -14 -1 -28q-2 -20 -6.5 -31.5t-14.5 -25.5q-27 -43 -47 -43q-23 0 -59.5 42t-48.5 83q-10 29 -36 75t-26 76q0 20 -4 30.5t-10 17t-21.5 38t-32.5 84.5q-25 80 -80 227.5t-59 162.5q-6 20 -18 24t-20.5 -7t-8.5 -34 q4 -33 25 -129q13 -65 13 -198q0 -74 -4 -168q-11 -266 -38 -289q-25 -20 -49 0q-18 16 -26.5 221t-13.5 452.5t-15 321.5z" />
<glyph unicode="O" horiz-adv-x="483" d="M22 434q2 37 5.5 80t8.5 137t9 201q10 283 33 371q14 57 27.5 75.5t46.5 24.5q39 9 80 10q28 0 58 -5q72 -11 105 -42q27 -25 36 -68.5t20 -201.5q12 -199 12 -316.5t-17 -310.5q-10 -129 -19 -162.5t-44 -64.5q-51 -43 -130 -44h-4q-76 0 -120 40q-41 39 -41 66.5 t-37 88.5q-14 23 -19 36q-4 13 -8 31q-2 10 -3 27q0 12 1 27zM156 714q4 -280 30 -341q35 -82 47.5 -101.5t28.5 -19.5q38 0 62 148q24 142 23 311v14q-1 178 -28 332q-31 147 -47 153q-3 1 -6 1q-20 -1 -43 -33q-26 -38 -45 -97q-22 -77 -22 -302v-65z" />
<glyph unicode="P" horiz-adv-x="442" d="M22 1334q8 22 146 22q115 0 137 -10q45 -23 64 -142q8 -57 34 -352q19 -187 19 -242v-7q-2 -48 -31 -103q-20 -39 -44.5 -58.5t-76.5 -38.5q-61 -20 -75.5 -33.5t-18.5 -56.5q-4 -47 -21.5 -95t-21.5 -81q-2 -25 -13 -34t-36 -9h-43l-14 608q-8 387 -8 538q0 86 3 94z M142 874q4 -328 24 -348q7 -7 19 -7q15 0 38 9l41 17l-6 323q-6 324 -31 353q-19 27 -35 27l-1 1q-15 0 -35 -24q-15 -19 -15 -253q0 -45 1 -98z" />
<glyph unicode="Q" horiz-adv-x="567" d="M24 216q-3 7 -3 23q0 25 6 70q12 92 14 320.5t8 413t29 217.5q28 40 28 69q0 59 181 62q68 0 89 -7.5t43.5 -40t32 -57t17.5 -58.5t8 -120t-2 -179t-8 -298l-14 -434l49 -33q37 -25 43 -58q1 -5 1 -10q0 -26 -26 -47q-12 -10 -29 -10q-18 0 -41 9q-47 20 -116 46 q-51 20 -97 20q-17 0 -34 -3q-25 -4 -43 -4q-16 0 -26 3q-23 7 -62 44q-43 41 -48 62zM168 680v-79q0 -269 12 -269q15 0 31 45q12 27 24.5 35t43.5 4l47 -4l18 184q13 149 13 308q0 40 -1 81q0 129 -7 170t-25 55q-28 20 -45 20q-3 0 -5 -1q-18 -4 -55 -41q-33 -31 -39 -66 q-10 -51 -12 -442z" />
<glyph unicode="R" horiz-adv-x="532" d="M22 1252q2 28 33 59q18 20 45 31.5t41.5 14.5t61.5 8t61 7q5 1 10 1q47 0 84 -50q41 -55 43 -143q23 -670 37 -715q10 -35 32 -63.5t33 -64.5q8 -26 8 -72q0 -17 -1 -36q-2 -68 -10 -85t-37 -21q-6 -1 -13 -1q-28 0 -50 24q-26 28 -27 73q0 29 -27 59.5t-35 69.5 q-12 51 -71 94q-44 32 -54 8q-7 -16 -6 -77q0 -35 2 -86l6 -140l-55 -6q-9 -1 -17 -1q-46 0 -58 29q-7 17 -6 54q0 39 7 101q8 74 8 192q0 69 -3 153q-7 228 -31 427q-12 108 -12 145q1 7 1 11zM184 901q4 -143 10.5 -194.5t22.5 -67.5q20 -22 41 -22q9 0 18 4q18 9 22 27 q2 7 2 18q0 21 -5 59q-8 74 -15.5 213t-15.5 217t-22 78q-32 0 -46 -78q-12 -68 -12 -210v-44z" />
<glyph unicode="S" horiz-adv-x="438" d="M23 395q4 33 14 42t45 9t45 -10t18 -55q8 -53 30 -86t48 -33q20 0 31 180q3 48 3 86q-1 83 -13 120q-18 54 -72 54q-35 0 -54.5 16.5t-29.5 59.5t-14 87t-11.5 130t-15.5 158q-4 24 -4 45q-1 48 19 79q28 44 100 60q34 8 65 7q47 0 85 -18q64 -30 89 -103q19 -52 19 -77 q0 -8 -2 -13q-12 -31 -47 -22t-70 52q-40 48 -65 48q-4 0 -9 -1q-29 -12 -38 -82q-3 -23 -3 -48q0 -52 13 -113q14 -76 29.5 -100.5t74.5 -59.5q2 -2 10 -6q45 -29 60.5 -52.5t25 -100.5t9.5 -249q0 -135 -6.5 -169.5t-36.5 -65.5q-27 -27 -53.5 -35t-86.5 -8q-63 0 -86.5 8 t-54.5 43q-63 77 -63 181q0 20 2 42z" />
<glyph unicode="T" horiz-adv-x="585" d="M23 1239q-3 22 -3 39q0 20 4 32q7 19 194 18h56q240 -3 267 -25q26 -22 26 -42q0 -26 -41 -49t-110 -32q-51 -6 -62.5 -19.5t-21.5 -77.5q-5 -44 -5 -148q0 -51 1 -119q4 -202 18 -423q4 -54 4 -96q0 -71 -11 -107q-15 -50 -61 -50q-5 0 -10 1l-47 6l-22 230 q-17 199 -17 439v73l4 282l-80 9q-53 6 -66 15t-17 44z" />
<glyph unicode="U" horiz-adv-x="589" d="M20 500.5q0 177.5 21 308.5q20 115 20 293q1 152 19 192q11 24 37 23q17 0 41 -10l46 -21l3 -412q6 -573 8 -600q4 -39 25 -43q2 0 10 -2q6 -1 11 -1q43 0 61 56q20 64 28 257q8 180 18.5 270t14.5 274q7 233 29 261q21 27 43 26h3q24 -2 68 -35q35 -27 40 -49 q2 -10 2 -32q0 -27 -3 -72q-51 -627 -53 -881q0 -109 -8 -151.5t-31.5 -65.5t-85.5 -47q-54 -21 -105 -21q-85 0 -159 58q-31 23 -47.5 54.5t-32.5 96.5q-23 96 -23 273.5z" />
<glyph unicode="V" horiz-adv-x="608" d="M31 1298q19 22 38 22q28 0 58 -44q43 -63 59 -174q12 -90 42 -156.5t48 -150.5q22 -105 39 -105h2q14 4 39 81t37 153q27 180 38 237.5t24 63.5q14 10 14 41q-1 35 25 54q22 16 47 16h8q29 -3 37 -25q2 -5 2 -13q0 -28 -20 -92q-26 -84 -27 -121q0 -27 -7.5 -52 t-17.5 -54t-25.5 -111t-29.5 -200q-51 -467 -82 -508q-18 -23 -62 -23q-23 0 -38 13.5t-26 47t-19.5 69.5t-23.5 104.5t-32 128.5q-33 117 -51 292t-92 404q-14 42 -14 69q0 22 10 33z" />
<glyph unicode="W" horiz-adv-x="825" d="M33 1276q20 25 52 26t48 -22q25 -33 41 -133q14 -89 14 -175v-22q-1 -27 -1 -54q-1 -84 9 -170q12 -112 29 -112q49 0 80 316q14 156 24.5 192.5t47.5 69.5q46 40 77 40q27 0 44 -28q29 -53 47 -237q53 -524 78 -533h1q12 0 21 90q16 129 33 514q12 238 39 269 q27 29 41 29l1 1q14 0 32 -24q15 -17 15 -139q0 -94 -9 -252q-21 -360 -60 -551q-32 -161 -32 -222q0 -39 -10.5 -56t-43.5 -34q-35 -18 -50 -18t-44 16q-33 23 -65.5 103t-42.5 172q-14 115 -34 198.5t-30 83.5q-16 0 -16 -129q0 -123 -37 -222t-84 -105q-9 -1 -18 -1 q-28 0 -44 15q-31 31 -88 372q-43 259 -43 347q0 28 4 39q2 4 2 15q-1 39 -23 155q-16 83 -15 127q0 37 10 49z" />
<glyph unicode="X" horiz-adv-x="686" d="M22 201q10 35 50 35q27 0 44 16t40 61q25 51 34 90t13 56.5t20 32.5q24 21 24 58q1 30 -11 58q-12 30 -25.5 68.5t-15.5 60.5q0 37 -25 89.5t-27 80.5q0 29 -19.5 73t-35.5 100q-13 45 -13 96q0 13 1 26l6 92l65 4q41 4 57.5 -4t35.5 -43q26 -53 26 -80q0 -20 36 -92.5 t36 -89.5q0 -37 22 -14q25 23 37 74q29 133 92 233q24 36 56 36q5 0 10 -1q37 -6 37 -54v-5q-2 -54 -49 -177q-35 -96 -61 -231q-25 -126 -25 -198v-11q2 -113 52 -244t116 -200q33 -35 39 -53q2 -5 2 -10q0 -14 -11 -30q-20 -37 -49 -37l-1 1h-3q-29 0 -63 -11 q-5 -1 -10 -1q-31 0 -67 56q-42 64 -75 132.5t-47 68.5q-12 0 -33.5 -57t-21.5 -88q0 -24 -85 -98q-79 -69 -101 -68h-3q-8 4 -16 22.5t-8 38.5q0 53 -27 76q-25 20 -25 46q-1 8 2 16z" />
<glyph unicode="Y" horiz-adv-x="686" d="M26 1162q-4 13 -4 26q0 19 9 37q2 4 4 6q22 45 55 86l35 39l22 -39q25 -41 52 -94l43 -78q25 -47 56.5 -122t52 -118t30.5 -43q12 0 55 137l58 191q14 53 65 115q33 39 46 45t32 -9q28 -24 28 -54q0 -32 -32 -99q-35 -70 -98 -283l-91 -291q-20 -57 -41 -350 q-16 -233 -49 -233q-18 2 -45 57q-27 59 -39 305q-10 199 -34.5 299.5t-100.5 247.5q-6 10 -16 31q-82 160 -93 191z" />
<glyph unicode="Z" horiz-adv-x="563" d="M20 169q0 24 21 97q37 135 111.5 352.5t95.5 247.5q27 41 74 159t47 144q0 31 -35 42.5t-133 11.5q-88 0 -106.5 6t-22.5 39q-1 9 -1 17q0 30 21 46q27 18 205 22q28 1 52 0q132 0 161 -16q33 -16 34 -61v-3q0 -44 -30 -89q-20 -33 -39.5 -95.5t-53.5 -179t-77 -233.5 q-37 -98 -76 -272q-29 -131 -29 -171q0 -13 3 -16q8 -8 106 -10q104 -2 146.5 -16.5t48.5 -51.5q2 -11 2 -20q-1 -25 -13 -36q-16 -15 -190 -31q-106 -9 -162 -9q-36 0 -51 4q-39 10 -78 62q-31 38 -31 60z" />
<glyph unicode="[" />
<glyph unicode="\" horiz-adv-x="669" d="M21.5 1192q-5.5 27 25.5 61q74 84 127 -65q94 -262 236 -529q164 -307 210 -417.5t17 -128.5q-16 -10 -106.5 71.5t-90.5 104.5q0 14 -34.5 52t-34.5 52t-71 154.5t-71 158t-35.5 89t-35.5 88.5q0 23 -70 161q-61 121 -66.5 148z" />
<glyph unicode="]" />
<glyph unicode="a" horiz-adv-x="647" d="M20 385q0 18 12.5 23.5t18.5 31.5q3 13 3 33.5t-3 48.5q-7 38 -7 107q0 77 8 193q16 220 36 245t45 25q18 0 36.5 9t33 20.5t49.5 17.5q18 3 38 3t44 -3q33 -4 55 -4q35 0 41 10q11 16 25 16q16 0 37 -22q36 -40 36 -96q0 -48 19.5 -176t23.5 -240q4 -109 21.5 -167.5 t27.5 -100.5q6 -24 6 -64q0 -31 -3 -72q-14 -149 -55 -149h-1q-18 0 -47 26q-29 27 -40 28t-42 -22q-42 -30 -157 -30h-7h-122l-41 71q-31 55 -41.5 96.5t-30 82.5t-19.5 59zM232 910q-1 -9 -1 -21q-1 -20 3 -48q6 -46 14 -93.5t17 -126t14 -154.5q6 -104 14 -144t26 -51 q16 -11 29 -11q11 0 19 9q25 25 37 317q4 107 4 185q0 137 -13 191q-2 16 -11 27t-17 11q-47 -6 -75 -15t-42 -30.5t-18 -45.5z" />
<glyph unicode="b" horiz-adv-x="530" d="M21 1008q-1 59 -1 111q0 319 27 347q25 28 44 28q40 0 56 -124q6 -43 9 -100l10 -170l231 12l113 -151v-289q0 -240 -20.5 -330t-88.5 -156q-31 -31 -58.5 -40t-86.5 -9q-57 0 -86 6.5t-51.5 35t-33.5 72.5t-26 134q-33 199 -38 623zM185 912v-20q0 -21 1 -49 q2 -42 11 -114q8 -82 16 -219q14 -197 37 -227q11 -15 28 -15q18 0 44 17l47 28v283q0 293 -23 338q-27 29 -80 29q-31 0 -42 -2.5t-24.5 -12.5t-14.5 -36z" />
<glyph unicode="c" horiz-adv-x="493" d="M20 236l13 321q8 260 24 380.5t45 149.5q20 23 66 35q39 10 82 11q9 -1 17 -1q52 -2 103.5 -36.5t73.5 -102.5q16 -45 14.5 -60t-28.5 -42q-29 -27 -37 -28t-22 24q-41 66 -63.5 84t-47.5 4q-50 -31 -72 -191q-11 -81 -11 -166q0 -84 11 -172q18 -156 35 -170q8 -6 31 -6 q27 0 44 17.5t42 66.5q41 86 81 86q21 0 42 -24q12 -15 12 -45q0 -39 -19 -99q-34 -108 -83 -143q-37 -25 -91 -25q-24 0 -54 6q-90 18 -158 78z" />
<glyph unicode="d" horiz-adv-x="526" d="M20 614q0 362 80 435q35 31 101 41q43 6 55 17t14 46q8 80 30 178t40 127q23 37 42 37q17 0 32 -29q12 -23 19 -452.5t13 -440.5q6 -10 32 -186t26 -219q2 -37 -30 -41h-7q-29 0 -59 29q-31 29 -42.5 29.5t-33.5 -17.5q-32 -30 -75 -30q-9 0 -19 1q-54 8 -103 60 q-74 76 -94.5 152.5t-20.5 262.5zM164 788q-4 -30 -4 -73q0 -73 12 -183q20 -174 43 -198q15 -17 26 -17q16 -1 23 33q12 58 12 275q0 78 -2 144.5t-5 105t-5 38.5q-49 -4 -70.5 -30.5t-29.5 -94.5z" />
<glyph unicode="e" horiz-adv-x="452" d="M20 332q0 35 3 155q6 401 18 465q6 45 40 87.5t73 56.5q28 10 63 10h11q42 -2 67 -14q55 -29 79.5 -101.5t33.5 -230.5l12 -203l-51 -49q-37 -39 -85 -49t-76 -14.5t-34 -30.5q-3 -15 -2 -33q0 -37 10 -88q16 -76 43 -107q20 -25 30.5 -26.5t31.5 12.5q23 20 23 58 q0 9 -1 20q-1 6 -1 12q0 38 24 58q14 12 31 13q15 0 32 -11q29 -18 35 -117q1 -19 1 -34q0 -69 -21 -87q-32 -26 -138 -46q-60 -11 -101 -12q-31 0 -52 7q-61 18 -76 39q-23 36 -23 228v32zM154 814q0 -53 17 -99q17 -47 44 -47q29 0 37 24q4 11 4 30q0 24 -6 60 q-17 122 -52 122q-3 0 -5 -1q-8 0 -15 -8q-24 -23 -24 -81z" />
<glyph unicode="f" horiz-adv-x="489" d="M20 739q0 14 23 47q18 29 24.5 85.5t6.5 213.5v252l78 80q47 49 75.5 64.5t65.5 15.5q43 0 63.5 -14.5t57.5 -65.5q47 -68 53 -105q1 -5 1 -11q0 -29 -26 -52q-23 -18 -48 3.5t-44.5 53t-51.5 44.5q-8 3 -16 3q-24 0 -49 -30q-20 -23 -25 -70q-4 -34 -4 -117q0 -34 1 -75 q0 -82 3 -124t7 -77t18.5 -47t31 -18.5t48.5 -8.5q111 -8 105 -55q-4 -43 -78 -72q-31 -12 -64 -16l-61 -6l-6 -244q-6 -246 -25 -269q-17 -21 -63 -21h-4q-49 1 -70 26q-14 16 -14 71v14q2 67 24 306q5 52 5 84q0 17 -1 28q-4 34 -20 60q-21 34 -21 47z" />
<glyph unicode="g" horiz-adv-x="448" d="M20 668q0 299 15 338q6 20 31 43q43 45 146 47h9q97 0 154 -41l53 -37l-10 -1077l-68 -62q-49 -45 -70 -52q-11 -3 -29 -3q-21 0 -52 4q-84 12 -133 58q-42 40 -42 94q0 8 1 16q4 45 13 53t52 4q39 -4 67.5 -22.5t39 -36t29 -27.5t36.5 4q33 20 33 80q0 41 -10.5 51.5 t-53.5 14.5q-53 6 -106 50t-80 107q-25 55 -25 394zM160 616q4 -238 20 -268q18 -33 48 -33h7q35 4 50 43q11 31 11 160q0 52 -2 120q-6 238 -26 275q-17 33 -34 33h-2q-17 -2 -46 -45q-20 -31 -25 -82q-3 -28 -3 -88q0 -47 2 -115z" />
<glyph unicode="h" horiz-adv-x="583" d="M24 1022q-3 109 -4 184q0 134 11 156q19 39 37 88q14 39 57 48q10 2 19 2q29 0 42 -23q16 -25 17 -191v-168l96 4q24 1 42 1q33 0 47 -4q22 -7 52 -40q45 -49 66 -139q41 -178 53 -412q4 -70 4 -124q0 -125 -20 -158q-23 -37 -48 -37q-7 0 -13 2q-32 12 -62 82 q-25 53 -32 110.5t-9 204.5q-2 182 -20.5 246t-77.5 96q-19 10 -33 10q-20 0 -29 -22q-18 -47 -20 -311q-2 -240 -14.5 -322t-49.5 -104q-16 -10 -30 -10q-32 0 -58 51q-24 46 -24 93q0 36 14 73q2 8 6 14q16 32 18 64v11q0 32 -8 87q-19 133 -29 438z" />
<glyph unicode="i" horiz-adv-x="258" d="M22 1332q-1 17 -2 32q0 38 12 50t54 13q12 1 28 -1q66 -4 79 -23q27 -33 31 -93v-14q0 -48 -21 -65q-26 -22 -72 -22h-11q-54 3 -77 32q-15 25 -21 91zM61 668v22q-3 95 -3 164q0 158 16 176q21 26 46 26q4 0 10 -1q32 -6 58 -45q18 -29 25.5 -107t13.5 -307l11 -369 l-50 -18q-23 -9 -41 -9q-30 0 -43 27q-31 61 -43 441z" />
<glyph unicode="j" horiz-adv-x="460" d="M23 84q4 70 11 84t38 14q27 0 37 -12t16 -49q8 -59 38 -69q5 -1 9 -1q24 0 41 41q13 36 13 341q0 76 -1 169l-4 463l53 10q52 12 73 12q5 0 8 -1q18 -3 42 -29q23 -25 24 -39t-7 -42t-14 -90q-2 -29 -2 -70q0 -46 3 -105q10 -166 11 -231q1 -29 1 -75q0 -62 -1 -157 l-4 -182l-76 -80q-49 -53 -76 -67.5t-74 -16.5h-7q-69 0 -112 41q-31 29 -38 52q-4 13 -4 41q0 20 2 48zM162 1320q4 13 41 52q31 31 51 40q12 5 29 5q11 0 24 -2q100 -18 126 -67q8 -15 8 -29q0 -35 -46 -70q-45 -35 -101 -35q-10 0 -20 2q-69 7 -96 56q-17 29 -17 43 q0 3 1 5z" />
<glyph unicode="k" horiz-adv-x="606" d="M26 148q-4 9 -5 17q0 10 6 21q10 20 24.5 183t18.5 307v18q0 91 -15 410l-14 356l51 53q51 53 62 54h2q50 0 73 -252q6 -68 15 -215q16 -283 39 -289q12 -4 26 37q84 215 137 287l41 53l45 -49q44 -50 44 -80q0 -19 -17 -29q-18 -12 -18 -43q0 -25 -35 -63.5t-35 -55.5 q0 -18 -24.5 -60t-44.5 -91q-13 -32 -12 -61q0 -15 3 -29q20 -96 99 -250l61 -119q32 -61 32 -95q0 -42 -50 -42q-37 0 -86.5 50t-49.5 87q0 20 -34.5 95t-34.5 100q0 16 -17.5 40.5t-38 38t-28.5 5t-16 -130t-25 -240.5t-47 -129q-2 -1 -4 -1q-22 0 -80 56q-38 38 -48 56z " />
<glyph unicode="l" horiz-adv-x="260" d="M22 204q-1 8 -1 21q0 34 6 99q14 138 16 556v113q0 321 -10 416q-9 73 -9 108q0 20 3 29q11 20 37 21h2q24 1 50 -21t27 -47q0 -33 29 -102q40 -95 56 -273q12 -141 13 -376q0 -60 -1 -127q-8 -414 -27 -439q-23 -29 -84 -37q-17 -2 -31 -2q-37 0 -57 15q-15 16 -19 46z " />
<glyph unicode="m" horiz-adv-x="729" d="M20 1067q0 49 24.5 76t51.5 4q31 -16 46 -6q14 9 55 23q23 7 47 8q20 0 41 -5q61 -12 194 -14h131l41 -72q14 -27 21.5 -43t11.5 -36.5t4 -63.5t1 -95t3 -162t8 -235q8 -180 8 -254q0 -18 -1 -30q-2 -60 -21 -74q-18 -16 -31.5 -15t-40.5 17q-31 20 -41 105 q-12 100 -32 626q-4 86 -13.5 116t-33.5 30q-11 0 -11 -141q0 -86 4 -224l13 -366l-56 -54q-39 -39 -50 -41t-38 25q-23 23 -31 85t-16 298q-12 348 -26 348q-12 0 -15.5 -22.5t-7.5 -145.5q-25 -649 -57 -727q-9 -19 -21 -19q-20 0 -49 50q-2 2 -2 4q-23 39 -31 111.5 t-16 308.5q-4 188 -16.5 310t-21.5 156.5t-17.5 68.5t-8.5 75z" />
<glyph unicode="n" horiz-adv-x="534" d="M22 1038q3 56 21 64q30 10 53 -8q29 -12 57.5 -6t74.5 21t57 17q10 0 84 -75q53 -55 63 -86t21 -156q12 -168 36 -268q26 -98 26 -233v-10q-1 -140 -28 -194q-28 -55 -45 -55q-5 0 -8 4q-8 6 -8 31q0 33 -25 53q-23 18 -35 152.5t-18 284t-30.5 271.5t-67.5 122 q-14 0 -17 -15q-4 -25 -4 -319q0 -293 -12 -424l-12 -133h-53q-39 0 -47.5 15t-16.5 97q-8 70 -21.5 121t-22.5 140.5t-17 302.5q-6 167 -6 242q0 29 1 44z" />
<glyph unicode="o" horiz-adv-x="491" d="M22 328q-1 12 -1 24q1 12 1 24q2 24 4.5 75t7.5 101t13 145.5t14 191.5q8 92 19.5 128t46.5 81q90 115 219 116q39 0 54.5 -13t39.5 -71q27 -58 30 -122q1 -21 1 -63q0 -83 -4 -247q-12 -350 -38 -388t-26 -63.5t-45 -84.5q-31 -41 -53 -50.5t-82 -9.5q-72 0 -113.5 22.5 t-41.5 61.5q0 25 -29 76q-8 14 -11.5 28t-5.5 38zM201 582v-86q0 -238 10 -244q4 -3 8 -3q24 0 45 89q45 188 45 483q0 106 -12 133q-18 49 -35 50q-33 0 -47 -93.5t-14 -328.5z" />
<glyph unicode="p" horiz-adv-x="460" d="M19 -218q1 87 5.5 191.5t10.5 321.5t8 446q2 313 22.5 334t141.5 33q47 6 65 8q11 1 26 1h16q26 -1 31 -2t17.5 -11t16.5 -17.5t16 -29.5q35 -57 43 -210q2 -36 2 -69q0 -107 -20 -182q-21 -74 -21 -156q0 -24 2 -49t2 -47q0 -157 -100 -180q-45 -10 -65.5 -29.5 t-22.5 -39t-14.5 -38t-40.5 -24.5q-33 -8 -39 -31q-6 -25 -8 -162q-2 -74 -5.5 -114.5t-11.5 -66.5t-20 -29q-6 -1 -12 -1q-9 0 -19 2q-14 6 -21 35q-5 25 -5 94v22zM172 466q-1 -26 -1 -48q0 -123 19 -144q13 -12 28 -12q11 0 22 6q28 15 43 56q18 44 18 323 q0 190 -5 239.5t-30 69.5q-20 20 -30 20q-4 0 -7 -3q-10 -10 -34 -82q-14 -45 -11.5 -62.5t11 -29t17.5 -17.5t8 -27.5t-17 -60.5q-27 -61 -31 -228z" />
<glyph unicode="q" horiz-adv-x="618" d="M22 723q-2 38 -2 72q0 59 7 108q10 86 73 156q27 27 40.5 40t30.5 17q11 3 19 3q4 0 8 -1q9 -2 39.5 -10t55.5 -14q23 -4 51.5 -22.5t44.5 -41.5q29 -35 35 -104q6 -74 8 -471q0 -526 14 -539q8 -10 32 0t45.5 19.5t47.5 -9.5q28 -22 28 -48q0 -39 -60 -85 q-37 -29 -65 -36q-22 -5 -59 -5h-22l-86 6l-16 318l-68 22q-94 29 -124.5 88.5t-35.5 221.5q-6 166 -20 188q-14 25 -21 127zM162 862q-8 -37 -8 -98q0 -96 18 -252q13 -123 13 -170q0 -24 -3 -29q-2 -4 -2 -10q0 -18 25 -51q33 -43 57 -43q18 0 23.5 60t5.5 306 q0 330 -15 357q-6 12 -22 14q-7 1 -14 1q-62 0 -78 -85z" />
<glyph unicode="r" horiz-adv-x="512" d="M23 834q-2 16 -2 36q0 46 12 118q18 103 41 132q14 21 26 21q4 -1 8 -3q16 -8 70 -69l64 -76l51 49q47 44 97 58q20 6 36 5q25 0 41 -13q26 -22 26 -43q1 -5 -1 -9q-6 -24 -47.5 -41.5t-85.5 -53.5t-44 -52t-39 -70q-29 -37 -33.5 -88t-6.5 -254q0 -193 -6.5 -247 t-26.5 -78q-19 -20 -31 -24q-3 -1 -6 0q-10 0 -21 7q-23 20 -22 47q0 16 -7 35t-17.5 42.5t-24 97t-21.5 184.5q-18 219 -30 289z" />
<glyph unicode="s" horiz-adv-x="514" d="M20 302v5q0 23 33 51q25 23 35 22t41 -28q41 -39 60.5 -39t41.5 -26q15 -18 27 -19q18 0 25 45q5 22 5 51q0 10 -1 21q0 57 -13.5 88t-58.5 84q-141 168 -141 335q0 20 2 40q8 94 43.5 147t105.5 76q66 21 114 21q41 0 69 -15q40 -23 66 -84q21 -50 21 -100 q-1 -11 -1 -21q-6 -60 -39 -79q-25 -12 -37 -9.5t-33 29.5q-33 39 -33 64t-36.5 44t-55.5 1q-8 -8 -8 -33q0 -31 12 -89q22 -104 55 -149q33 -49 33 -64.5t35 -60.5q31 -39 45 -173q6 -59 7 -110q0 -66 -11 -118q-8 -51 -22.5 -70.5t-57.5 -42.5q-42 -18 -66 -21 q-5 -1 -10 -1q-23 0 -59 10q-43 12 -69.5 34.5t-63.5 78.5q-56 81 -60 105z" />
<glyph unicode="t" horiz-adv-x="450" d="M20 659q0 545 11 603q8 39 39 67l10 10q55 51 87 51q13 0 21 -8q22 -21 22 -97q0 -30 -3 -68l-12 -125h73q45 0 68.5 -9.5t48.5 -38.5q45 -48 45 -72q0 -6 -2 -10q-12 -22 -109 -38q-79 -12 -111 -48q-31 -34 -30 -100v-8q2 -141 15.5 -286.5t25.5 -157.5q5 -5 11 -5 q16 0 42 33q31 40 72 48q8 1 15 2q31 0 53 -27q11 -12 11 -31q-1 -32 -31 -82q-48 -80 -105 -94q-35 -9 -67 -9q-94 0 -152 83q-35 51 -41.5 103t-6.5 314z" />
<glyph unicode="u" horiz-adv-x="645" d="M20 649v102q0 149 4 189q6 53 35 94q35 46 57 54q5 2 11 2q20 0 49 -21q27 -20 31 -165.5t8 -313.5t29 -225q29 -66 51 -77.5t51 27.5q35 45 45 130t15 327q3 280 26 309q22 25 47 25q22 0 47 -19q25 -18 32 -129.5t15.5 -294t30.5 -311.5q19 -98 19 -148q-1 -17 -3 -28 q-8 -45 -59 -53h-7q-33 0 -58 37q-23 37 -46.5 32.5t-105.5 -59.5q-31 -22 -53 -22q-1 1 -3 1q-22 2 -102 23q-84 25 -102 39t-37 72q-23 78 -27 403z" />
<glyph unicode="v" horiz-adv-x="593" d="M22 1013l-2 6q0 7 6 17q8 14 8.5 14.5l14.5 14.5t17 14q33 33 47 39t30 -8q29 -22 29 -53q0 -20 35 -102.5t35 -127.5q0 -39 17 -63.5t26 -104.5q12 -98 24 -98q23 0 42.5 87t39 195.5t35.5 137.5q29 55 29 100q1 33 25 57q24 23 50 22h2q28 -1 39 -27q3 -7 3 -27 q0 -68 -32 -284q-42 -278 -67 -324q-18 -37 -31 -181q-8 -90 -18 -123.5t-37 -58.5q-25 -25 -40 -29q-4 -1 -7 -1q-12 0 -25 10q-49 29 -137 323l-80 256q-18 59 -32.5 103.5t-22.5 81t-15 59.5t-5.5 44.5t-2.5 30.5z" />
<glyph unicode="w" horiz-adv-x="878" d="M25 1079q14 12 60 2t60 -30q18 -23 37 -211.5t44.5 -366.5t58.5 -190q12 -4 23 33q10 38 14 88l2 32q0 31 -5 58q-2 10 -2 24q-1 46 19 140q26 122 26 245q0 154 25 164q23 8 60.5 -12.5t37.5 -40.5q0 -23 33 -53q23 -23 30 -75t11 -243q4 -203 11.5 -252t37.5 -90 q33 -43 51 -43q6 0 11 4q14 14 27 413.5t36 424.5q20 25 35 25q16 0 51 -29q29 -25 35 -64q3 -22 3 -99q0 -103 -5 -304q-6 -205 -14.5 -281t-28.5 -117q-25 -53 -74 -83.5t-104 -32.5q-35 0 -85 45t-65 86q-10 35 -37 -2q-14 -25 -22 -64q-10 -61 -64 -88q-34 -19 -62 -19 q-12 -1 -22 3q-36 12 -75 67q-33 45 -55.5 141.5t-44 230.5t-40.5 206q-21 76 -33 211q-7 72 -6 109q0 32 5 38z" />
<glyph unicode="x" horiz-adv-x="557" d="M24 1016q-2 13 -2 23q0 25 10 41q14 22 35 37.5t41 19.5q14 3 24 3q5 0 9 -1q27 -2 39.5 -18.5t26.5 -71.5q30 -129 75 -129h3q10 0 18 8q16 16 50 83.5t66 98.5q16 15 31 15q17 0 35 -17q18 -18 15.5 -45t-33.5 -123q-29 -86 -58.5 -157.5t-43 -102.5t-13.5 -35 q0 -12 90 -209.5t93 -253.5v-12q-1 -24 -7 -33q-8 -10 -39 -14q-31 -2 -46 11t-46 73q-45 88 -45 119q0 23 -21.5 58.5t-33.5 35.5q-10 0 -48 -88t-38 -109q0 -18 -51 -69q-41 -42 -82 -50q-9 -2 -16 -1q-27 0 -37 24q-2 4 -2 12q1 33 27 132q32 124 61 180q51 102 67 143 q10 26 9 45q0 11 -3 20q-45 140 -123 265q-31 51 -37 92z" />
<glyph unicode="y" horiz-adv-x="518" d="M37 -121q-18 22 -18 41q0 26 32 47q33 21 74 21q30 0 65 -11q33 -11 51 -11q7 0 13 2q16 7 59 57q52 63 52 83q0 2 -1 4q-4 13 -40 13q-13 0 -29 -2q-9 -1 -17 -1q-136 0 -192 218q-29 113 -34 408q-1 46 -1 85q0 213 23 236q20 20 51 21h1q30 0 47 -22q17 -21 24 -351 q4 -233 11 -287.5t34 -81.5q29 -29 46 -29q5 0 9 3q45 29 47 460v265l64 6q31 2 47 -3.5t24 -22.5t9 -43v-20q0 -21 -1 -52q-2 -46 -5 -98q-2 -31 -2 -74q0 -28 1 -61q2 -83 11 -171q5 -66 5 -134q0 -120 -16 -245q-16 -137 -29.5 -175t-56.5 -83q-78 -80 -115 -89 q-8 -2 -17 -2q-37 0 -105 30q-98 43 -121 69z" />
<glyph unicode="z" horiz-adv-x="604" d="M27 1106q16 14 145 34.5t207 20.5q78 1 90 19q12 20 35 20q14 0 32 -8q48 -21 48 -62q0 -25 -47 -116q-74 -147 -147 -395t-95 -314q-14 -39 -14 -63q-1 -18 7 -28q18 -24 101 -24q84 0 125 -34q31 -25 32 -34t-20 -32q-20 -18 -47.5 -26.5t-55.5 -10.5t-32 -2q-2 0 1 -6 t8.5 -16.5t13.5 -22.5q26 -41 14 -50q-3 -2 -7 -2q-15 0 -48 23q-41 29 -100.5 30t-108.5 4t-78 40q-27 35 -31 68t17 45q16 10 69.5 122.5t53.5 139.5q0 25 10 49.5t35.5 97t52.5 185.5q24 104 24 142q1 10 -1 16q-8 24 -132 24q-66 0 -89 5t-30.5 11.5t-13.5 36t-20 58.5 q-11 23 -11 37q0 12 7 18z" />
<glyph unicode="{" />
<glyph unicode="|" />
<glyph unicode="}" />
<glyph unicode="~" horiz-adv-x="731" d="M24.5 589.5q-12.5 47.5 8.5 76.5q12 16 31.5 55t37 63.5t35.5 28.5q31 10 113 12q57 0 83.5 -13t94.5 -83q113 -117 131 -86q6 10 6 37q0 37 35 83t64 46q37 0 45 -44t-15 -122q-18 -66 -36.5 -91.5t-65.5 -51.5q-74 -45 -92 -45q-14 0 -123 106.5t-127 106.5 q-8 0 -21.5 -16.5t-23.5 -41.5q-25 -55 -62 -78.5t-71 -5.5q-35 16 -47.5 63.5z" />
<glyph unicode="&#xa2;" />
<glyph unicode="&#xa3;" horiz-adv-x="532" d="M21 194.5q-3 30.5 14 137.5q14 109 10 340t-20 327q-12 57 10 171t53 167q14 23 42.5 48.5t57.5 39.5q80 39 127 33t107 -65q70 -70 82 -115q10 -45 -13.5 -72.5t-59.5 -19.5t-56 51q-25 49 -67 48t-79 -50q-20 -31 -27 -66.5t-7 -103.5q0 -115 19 -150.5t83 -35.5 q70 0 125 -45q76 -66 49 -111t-135 -29q-86 12 -95.5 -4t-13.5 -201l-4 -184l82 6q53 4 78 -5t66 -50q63 -59 63 -80q0 -27 -46 -41t-128 -14q-61 0 -89 -8.5t-46 -28.5q-39 -41 -78 -33t-74 66q-27 47 -30 77.5z" />
<glyph unicode="&#xa7;" horiz-adv-x="135" d="M23 932q-10 35 17.5 53.5t57.5 -10.5q16 -18 15.5 -26.5t-23.5 -26.5q-35 -25 -47 -24t-20 34z" />
<glyph unicode="&#xab;" horiz-adv-x="724" d="M20 549q0 33 91.5 180t128.5 172q27 18 58.5 7t35.5 -40q6 -37 -33 -106q-33 -55 -47 -81t-25.5 -57.5t-12.5 -42t8 -31t21.5 -30.5t39.5 -33q59 -49 67 -76.5t-26 -64.5q-35 -39 -80 -25.5t-125 87.5q-100 94 -101 141zM356 592q0 29 91 169t128 165q39 27 65 18.5 t30 -49.5q6 -45 -76 -164l-80 -117l61 -77q63 -76 63.5 -93.5t35.5 -50.5q33 -31 29.5 -68.5t-39.5 -41.5q-35 -6 -110 54t-136.5 138t-61.5 117z" />
<glyph unicode="&#xad;" horiz-adv-x="464" d="M23 614q8 31 27 39.5t97 16.5q229 23 279 -27q16 -16 17 -27.5t-7 -19.5t-15 -26.5t-5 -45.5q4 -41 -29 -48t-92 26q-35 18 -51.5 20t-28.5 -10q-25 -25 -61.5 -25t-68.5 16.5t-51.5 47.5t-10.5 63z" />
<glyph unicode="&#xbb;" horiz-adv-x="727" d="M20 944q0 59 43 68q55 8 134 -86q61 -74 137 -148q63 -63 70.5 -101t-42.5 -71q-27 -16 -49 -54t-36.5 -73t-38 -66.5t-50.5 -37.5q-53 -14 -75.5 2t-22.5 69q0 37 13.5 64t50.5 63q55 57 57 82t-43 66q-49 47 -98.5 120.5t-49.5 102.5zM351.5 911.5q-23.5 51.5 4.5 81.5 q16 20 35 24.5t38.5 -8t39.5 -30.5t44 -47t45.5 -57.5t50 -61.5t55.5 -55q41 -39 42 -82t-20.5 -74t-60.5 -80t-54 -78q-20 -39 -82 -75q-37 -25 -56 -28t-40 7q-37 25 -37 57.5t28 77.5t60.5 82t60 70t27.5 43t-37.5 51t-78.5 86t-64.5 96.5z" />
<glyph unicode="&#xbf;" />
<glyph unicode="&#xc0;" />
<glyph unicode="&#xc1;" />
<glyph unicode="&#xc2;" />
<glyph unicode="&#xc4;" />
<glyph unicode="&#xc7;" />
<glyph unicode="&#xc8;" />
<glyph unicode="&#xc9;" />
<glyph unicode="&#xca;" />
<glyph unicode="&#xcb;" />
<glyph unicode="&#xce;" />
<glyph unicode="&#xcf;" />
<glyph unicode="&#xd1;" />
<glyph unicode="&#xd3;" />
<glyph unicode="&#xd4;" />
<glyph unicode="&#xd6;" />
<glyph unicode="&#xd9;" />
<glyph unicode="&#xda;" />
<glyph unicode="&#xdb;" />
<glyph unicode="&#xdc;" />
<glyph unicode="&#xdf;" />
<glyph unicode="&#xe0;" />
<glyph unicode="&#xe1;" />
<glyph unicode="&#xe2;" />
<glyph unicode="&#xe4;" />
<glyph unicode="&#xe7;" />
<glyph unicode="&#xe8;" />
<glyph unicode="&#xe9;" />
<glyph unicode="&#xea;" />
<glyph unicode="&#xeb;" />
<glyph unicode="&#xee;" />
<glyph unicode="&#xef;" />
<glyph unicode="&#xf3;" />
<glyph unicode="&#xf4;" />
<glyph unicode="&#xf6;" />
<glyph unicode="&#xf9;" />
<glyph unicode="&#xfa;" />
<glyph unicode="&#xfb;" />
<glyph unicode="&#xfc;" />
<glyph unicode="&#x2000;" horiz-adv-x="783" />
<glyph unicode="&#x2001;" horiz-adv-x="1567" />
<glyph unicode="&#x2002;" horiz-adv-x="783" />
<glyph unicode="&#x2003;" horiz-adv-x="1567" />
<glyph unicode="&#x2004;" horiz-adv-x="522" />
<glyph unicode="&#x2005;" horiz-adv-x="391" />
<glyph unicode="&#x2006;" horiz-adv-x="261" />
<glyph unicode="&#x2007;" horiz-adv-x="261" />
<glyph unicode="&#x2008;" horiz-adv-x="195" />
<glyph unicode="&#x2009;" horiz-adv-x="313" />
<glyph unicode="&#x200a;" horiz-adv-x="87" />
<glyph unicode="&#x2010;" horiz-adv-x="464" d="M23 614q8 31 27 39.5t97 16.5q229 23 279 -27q16 -16 17 -27.5t-7 -19.5t-15 -26.5t-5 -45.5q4 -41 -29 -48t-92 26q-35 18 -51.5 20t-28.5 -10q-25 -25 -61.5 -25t-68.5 16.5t-51.5 47.5t-10.5 63z" />
<glyph unicode="&#x2011;" horiz-adv-x="464" d="M23 614q8 31 27 39.5t97 16.5q229 23 279 -27q16 -16 17 -27.5t-7 -19.5t-15 -26.5t-5 -45.5q4 -41 -29 -48t-92 26q-35 18 -51.5 20t-28.5 -10q-25 -25 -61.5 -25t-68.5 16.5t-51.5 47.5t-10.5 63z" />
<glyph unicode="&#x2012;" horiz-adv-x="464" d="M23 614q8 31 27 39.5t97 16.5q229 23 279 -27q16 -16 17 -27.5t-7 -19.5t-15 -26.5t-5 -45.5q4 -41 -29 -48t-92 26q-35 18 -51.5 20t-28.5 -10q-25 -25 -61.5 -25t-68.5 16.5t-51.5 47.5t-10.5 63z" />
<glyph unicode="&#x2013;" horiz-adv-x="1063" d="M27 614q19 31 65 39.5t235 16.5q555 23 676 -27q38 -16 40.5 -27.5t-17 -19.5t-36 -26.5t-12.5 -45.5q10 -41 -70 -48t-223 26q-84 18 -124 20t-69 -10q-61 -25 -149.5 -25t-165.5 16.5t-124.5 47.5t-25.5 63z" />
<glyph unicode="&#x2014;" horiz-adv-x="2087" d="M34 614q38 31 130 39.5t470 16.5q1109 23 1351 -27q78 -16 82.5 -27.5t-34 -19.5t-72.5 -26.5t-24 -45.5q19 -41 -140.5 -48t-445.5 26q-170 18 -249.5 20t-138.5 -10q-121 -25 -297.5 -25t-331.5 16.5t-249.5 47.5t-50.5 63z" />
<glyph unicode="&#x201c;" horiz-adv-x="653" d="M22 1121q-4 18 5 73q8 63 48 119.5t91 79.5q39 16 52 14t22 -25q10 -29 -29 -69l-39 -43l35 -51q37 -51 36 -79t-42 -55q-76 -51 -146 -2q-29 20 -33 38zM375 1141q-6 35 4 64.5t49 88.5q41 61 62.5 79t52.5 18q49 0 62 -19.5t-15 -50.5q-23 -25 -22 -36t30 -46 q35 -45 34 -71.5t-36 -75.5q-25 -31 -46.5 -42.5t-57.5 -11.5q-57 0 -81 21.5t-36 81.5z" />
<glyph unicode="&#x201e;" horiz-adv-x="690" d="M29 348q22 39 61 53q43 18 64.5 15.5t60.5 -33.5q31 -23 38 -46.5t7 -86.5q0 -88 -40 -171t-83 -83t-44 26.5t20.5 62.5t21.5 70.5t-39 51.5q-45 18 -65.5 61t-1.5 80zM403.5 265.5q-8.5 41.5 16.5 86.5q20 39 103 36t122 -44q74 -78 -84 -289q-35 -49 -58.5 -55 t-47.5 23q-18 25 10 81q20 43 18 55.5t-34 37.5q-37 27 -45.5 68.5z" />
<glyph unicode="&#x2022;" />
<glyph unicode="&#x202f;" horiz-adv-x="313" />
<glyph unicode="&#x205f;" horiz-adv-x="391" />
<glyph unicode="&#x20ac;" horiz-adv-x="688" d="M21.5 627.5q-5.5 19.5 18 35t47.5 36t31 44t-32 58.5q-74 66 18 131q31 20 42.5 41.5t11.5 54.5q0 43 42.5 178t65.5 162q20 23 174 39q31 2 101.5 -34t99.5 -66q31 -35 25 -95q-2 -25 -5.5 -35t-9.5 -17t-22.5 -7h-35t-58 -1t-80.5 -5q-27 -2 -65 -61.5t-38 -98.5 q0 -25 14.5 -31t73.5 -6q57 0 78 -8t39 -39q29 -45 5.5 -61.5t-118.5 -16.5q-90 0 -112 -26q-33 -41 33 -56q35 -6 110 -8q92 -4 113.5 -11t25.5 -34q6 -47 -54 -78.5t-140 -21.5q-51 6 -73.5 1t-45.5 -28q-37 -37 -37 -76q0 -33 26.5 -113.5t47.5 -107.5q23 -29 74 -28.5 t96 28.5q45 27 56 27t30 -25q27 -39 18.5 -69.5t-57.5 -79.5q-39 -37 -68.5 -49.5t-95.5 -16.5q-70 -6 -92.5 1t-54.5 42q-104 115 -109 336q-2 98 -9 117.5t-52 38.5q-47 20 -52.5 39.5z" />
<glyph unicode="&#x25fc;" horiz-adv-x="1136" d="M0 0v1137h1137v-1137h-1137z" />
</font>
</defs>
</svg>
